<?xml version="1.0" encoding="utf-8"?>
<!-- Generator: Adobe Illustrator 15.0.0, SVG Export Plug-In . SVG Version: 6.00 Build 0)  -->
<!DOCTYPE svg PUBLIC "-//W3C//DTD SVG 1.1//EN" "http://www.w3.org/Graphics/SVG/1.1/DTD/svg11.dtd">
<svg version="1.1" id="Layer_1" xmlns="http://www.w3.org/2000/svg" xmlns:xlink="http://www.w3.org/1999/xlink" x="0px" y="0px"
	 width="383.9px" height="383.9px" viewBox="0 0 383.9 383.9" enable-background="new 0 0 383.9 383.9" xml:space="preserve">
<rect x="0" y="-0.336" fill="#FFFFFF" stroke="#4D4D4D" stroke-width="45" stroke-miterlimit="10" width="383.9" height="383.9"/>
<g>
	<g>
		<path fill="#4D4D4D" d="M118.799,320V148.9H63.9V320H118.799L118.799,320z M93.4,123c18.301,0,29.7-13.1,29.7-29.5
			c-0.301-16.7-11.4-29.5-29.4-29.5s-29.7,12.8-29.7,29.5c0,16.4,11.399,29.5,29,29.5H93.4L93.4,123z"/>
		<path fill="#4D4D4D" d="M256.6,145c-29.102,0-41.602,16.4-49.602,27.8V149h-55v171h55V222.6c0-5,0.4-10,1.9-13.5
			c4-10,13-20.302,28.199-20.302c19.9,0,27.9,15.302,27.9,37.7V320h55V220.1C320.001,168.8,292.8,145,256.6,145z"/>
	</g>
</g>
</svg>
