<?xml version="1.0" encoding="utf-8"?>
<!-- Generator: Adobe Illustrator 15.0.0, SVG Export Plug-In . SVG Version: 6.00 Build 0)  -->
<!DOCTYPE svg PUBLIC "-//W3C//DTD SVG 1.1//EN" "http://www.w3.org/Graphics/SVG/1.1/DTD/svg11.dtd">
<svg version="1.1" id="Layer_1" xmlns="http://www.w3.org/2000/svg" xmlns:xlink="http://www.w3.org/1999/xlink" x="0px" y="0px"
	 width="383.9px" height="383.9px" viewBox="0 0 383.9 383.9" enable-background="new 0 0 383.9 383.9" xml:space="preserve">
<rect x="0.05" y="0" fill="#FFFFFF" stroke="#4D4D4D" stroke-width="45" stroke-miterlimit="10" width="383.9" height="383.9"/>
<g>
	<path fill="#4D4D4D" d="M251.698,181.686c0.064-0.006,0.127-0.016,0.199-0.02c-0.004-0.008-0.012-0.021-0.018-0.031
		c-0.018,0-0.039,0.002-0.057,0.004c-0.051,0.004-0.1,0.012-0.148,0.019C251.682,181.667,251.688,181.677,251.698,181.686z"/>
	<path fill="#4D4D4D" d="M65.685,153.266c-1.15-0.778-2.301-1.564-3.458-2.39c-8.564-5.977-14.181,2.16-8.927,9.936
		c10.226,12.526,29.661,28.081,59.467,40.318c-31.535,107.418,76.964,124.481,75.308,69.406c0,1.022,0.06-31.263,0.104-54.157
		c2.844,0.668,5.324,1.323,7.644,1.894c0.043,22.739,0.1,53.255,0.1,52.264c-1.654,55.075,106.916,38.012,75.309-69.406
		c29.807-12.236,49.246-27.792,59.469-40.318c5.252-7.776-0.357-15.913-8.928-9.936c-1.107,0.79-2.207,1.54-3.309,2.286
		l-13.758,8.389c-38.656,20.896-71.938,17.254-89.99,16.687c-13.318-0.669-18.234,5.077-18.859,13.927
		c-3.42-2.477-6.713-5.221-9.795-8.168c-0.051,0.151-0.095,0.301-0.142,0.454c-2.635-4.26-7.773-6.657-16.636-6.213
		c-17.785,0.559-50.342,4.08-88.264-15.785L65.685,153.266z M174.875,188.55c-4.061,0.523-9.489,0.984-16.02,0.984
		c-23.631,0-61.598-6.046-100.513-37.216c22.094,13.866,47.429,30.35,92.736,30.35c6.211,0,12.786-0.306,19.789-0.975
		c0.383-0.025,0.753-0.033,1.118-0.033c1.121,0,2.14,0.103,3.061,0.268c6.062,1.078,8.059,5.164,8.059,5.164
		S180.151,187.872,174.875,188.55z M253.495,186.726c-0.162,0.069-0.336,0.12-0.543,0.134c-0.008,0-0.016-0.003-0.023-0.003
		c-6.76,1.591-23.945,2.677-27.783,2.677c-15.018,0-24.254-2.442-24.254-2.442s2.648-5.432,11.188-5.432
		c0.363,0,0.738,0.008,1.125,0.033c6.996,0.669,13.562,0.975,19.77,0.975c3.83,0,15.225-0.798,18.852-1.027
		c33.832-3.806,55.01-17.508,73.838-29.321C299.893,172.954,274.544,182.576,253.495,186.726z"/>
	<path fill="#4D4D4D" d="M187.791,133.016c0-17.413-14.82-31.526-33.104-31.526s-33.103,14.116-33.103,31.526
		c0,17.411,14.82,31.524,33.103,31.524S187.791,150.429,187.791,133.016z M124.019,141.575
		c-1.871-10.798,1.657-34.125,28.009-36.789c0.859-0.08,1.669-0.12,2.427-0.12c11.149-0.004,11.479,8.328-2.14,8.328
		C130.143,112.996,124.019,141.575,124.019,141.575z"/>
	<path fill="#4D4D4D" d="M234.028,164.545c18.279,0,33.102-14.115,33.102-31.526c0-17.41-14.822-31.525-33.102-31.525
		c-18.283,0-33.105,14.115-33.105,31.525C200.923,150.429,215.745,164.545,234.028,164.545z M231.362,104.787
		c0.859-0.079,1.67-0.119,2.432-0.119c11.148-0.004,11.477,8.328-2.141,8.328c-22.174,0-28.295,28.58-28.295,28.58
		C201.485,130.777,205.012,107.451,231.362,104.787z"/>
</g>
</svg>
