<?xml version="1.0" encoding="utf-8"?>
<!-- Generator: Adobe Illustrator 15.0.0, SVG Export Plug-In . SVG Version: 6.00 Build 0)  -->
<!DOCTYPE svg PUBLIC "-//W3C//DTD SVG 1.1//EN" "http://www.w3.org/Graphics/SVG/1.1/DTD/svg11.dtd">
<svg version="1.1" id="Layer_1" xmlns="http://www.w3.org/2000/svg" xmlns:xlink="http://www.w3.org/1999/xlink" x="0px" y="0px"
	 width="383.9px" height="383.9px" viewBox="0 0 383.9 383.9" enable-background="new 0 0 383.9 383.9" xml:space="preserve">
<rect x="0" y="0" fill="#FFFFFF" stroke="#4D4D4D" stroke-width="45" stroke-miterlimit="10" width="383.9" height="383.9"/>
<path fill="#4D4D4D" d="M162.135,126.441h93.824c17.967,0,31.95,14.975,31.95,31.943v2.989c0,16.971-13.983,31.946-31.95,31.946
	h-93.825v23.954c0,0,0,0.994,0,1.996c0,14.973,7.991,30.942,25.947,33.935h67.878c17.967,0,31.95,14.974,31.95,31.939v2.992
	c0,17.967-13.983,31.942-31.95,31.942h-69.873c-1.99,0-2.992,0-4.995,0h-1.986c-1.991,0-2.993,0-4.996,0
	c-47.896-4.988-77.842-46.916-78.845-100.811c0,0,0-1.001,0-1.996V95.5c0-17.965,14.973-31.936,31.937-31.936h2.994
	c16.974,0,31.941,13.971,31.941,31.936L162.135,126.441L162.135,126.441z"/>
</svg>
